<?xml version="1.0" standalone="no"?>
<!DOCTYPE svg PUBLIC "-//W3C//DTD SVG 20010904//EN"
 "http://www.w3.org/TR/2001/REC-SVG-20010904/DTD/svg10.dtd">
<svg version="1.0" xmlns="http://www.w3.org/2000/svg"
 width="2089.000000pt" height="314.000000pt" viewBox="0 0 2089.000000 314.000000"
 preserveAspectRatio="xMidYMid meet">

<g transform="translate(0.000000,314.000000) scale(0.100000,-0.100000)"
fill="#000000" stroke="none">
<path d="M8105 3054 c-317 -46 -552 -159 -756 -363 -53 -53 -120 -132 -149
-176 -244 -364 -329 -870 -229 -1370 101 -504 401 -861 849 -1009 318 -105
771 -99 1132 14 53 17 100 35 103 40 15 24 -74 352 -120 441 l-14 26 -120 -33
c-197 -54 -389 -67 -571 -39 -184 28 -298 83 -415 200 -66 65 -90 98 -128 175
-80 161 -117 354 -117 604 0 309 66 554 195 725 91 120 236 210 400 248 167
38 464 17 649 -47 33 -11 63 -17 68 -12 13 13 95 237 111 304 9 35 19 84 22
109 l7 47 -54 20 c-197 74 -321 94 -603 97 -126 2 -243 1 -260 -1z"/>
<path d="M16500 3045 c-268 -44 -518 -166 -695 -340 -222 -216 -369 -537 -414
-905 -15 -119 -13 -396 4 -521 47 -357 170 -627 384 -840 321 -321 740 -427
1396 -353 136 16 374 68 432 96 l28 13 0 710 0 709 -40 10 c-50 11 -410 14
-487 3 l-58 -8 -2 -512 -3 -512 -75 -13 c-98 -17 -279 -9 -389 18 -304 74
-489 304 -546 680 -20 126 -19 425 0 554 76 502 377 752 870 721 128 -8 229
-25 340 -60 60 -18 81 -21 87 -12 17 26 100 263 114 324 8 36 14 82 12 102
l-3 36 -110 37 c-168 56 -267 70 -530 74 -165 2 -254 -1 -315 -11z"/>
<path d="M13670 2778 c-163 -8 -302 -38 -464 -97 l-131 -49 3 -43 c7 -103 114
-428 138 -422 5 2 52 19 104 39 136 52 252 74 395 74 236 0 369 -60 437 -197
29 -58 32 -75 32 -152 1 -47 -6 -108 -13 -136 -36 -128 -135 -296 -301 -510
-136 -175 -835 -1088 -844 -1103 -4 -7 -2 -26 4 -43 l12 -29 924 0 c882 0 923
1 928 18 22 68 22 385 1 452 -6 20 -16 20 -432 20 -369 0 -424 2 -420 15 4 8
73 103 154 212 358 477 462 642 537 851 89 251 69 540 -51 732 -170 271 -512
395 -1013 368z"/>
<path d="M4630 2744 c-238 -29 -487 -153 -847 -423 -79 -58 -143 -111 -143
-116 0 -10 78 -40 345 -132 l130 -44 85 12 c106 15 370 80 780 194 382 105
446 128 591 213 112 65 115 66 181 65 57 -2 209 -34 271 -58 12 -5 17 -2 17 9
0 10 -21 22 -62 35 -35 10 -155 53 -268 94 -285 103 -288 104 -445 128 -134
19 -542 34 -635 23z"/>
<path d="M3235 2706 c-218 -31 -467 -95 -644 -165 -103 -41 -522 -222 -736
-318 -124 -56 -130 -60 -130 -88 l0 -30 100 -7 c55 -4 210 -11 345 -17 258
-11 237 -12 943 39 l268 20 92 73 c51 41 113 88 139 105 75 51 570 352 578
352 6 0 20 23 20 33 0 1 -48 2 -107 2 -60 0 -259 3 -443 7 -249 5 -358 3 -425
-6z"/>
<path d="M5750 2457 c0 -9 14 -17 38 -21 55 -9 136 -57 140 -82 5 -38 -155
-177 -262 -228 -84 -39 -1094 -424 -1183 -450 -17 -5 -42 -36 -29 -36 9 0
1028 344 1141 385 177 64 214 85 294 161 73 68 181 194 181 211 0 5 -63 22
-140 37 -77 15 -149 30 -160 33 -13 4 -20 0 -20 -10z"/>
<path d="M10000 2244 c-19 -2 -78 -9 -130 -15 -116 -13 -259 -43 -362 -75 -88
-28 -84 -21 -68 -139 12 -83 31 -146 73 -238 23 -52 34 -66 46 -62 43 17 205
55 279 65 112 17 359 8 431 -15 39 -12 68 -31 105 -68 59 -59 76 -103 76 -194
l0 -60 -207 0 c-212 1 -312 -10 -444 -49 -260 -77 -438 -240 -496 -455 -22
-85 -22 -279 1 -369 54 -214 199 -367 419 -440 147 -50 258 -64 502 -64 254 0
359 13 618 76 l167 41 0 672 c0 704 -3 764 -46 900 -78 242 -278 406 -569 466
-86 18 -322 32 -395 23z m413 -1170 l37 -7 0 -267 0 -268 -83 -12 c-121 -18
-307 -9 -378 19 -118 45 -179 151 -165 282 15 143 115 230 298 258 62 10 218
7 291 -5z"/>
<path d="M18845 2239 c-148 -16 -308 -73 -425 -152 -199 -136 -326 -335 -392
-617 -29 -127 -36 -423 -13 -561 59 -353 232 -612 500 -744 291 -144 729 -137
1005 18 235 131 380 339 452 647 25 110 36 397 19 523 -83 622 -511 953 -1146
886z m247 -450 c223 -48 327 -251 328 -639 0 -332 -78 -533 -238 -612 -64 -32
-72 -33 -182 -33 -110 0 -118 1 -182 33 -36 18 -80 48 -97 68 -46 52 -89 143
-114 242 -19 77 -22 112 -21 307 0 243 13 316 73 440 79 161 243 234 433 194z"/>
<path d="M6504 2202 c-89 -42 -162 -169 -218 -384 -46 -177 -52 -218 -33 -218
11 0 17 16 22 53 19 141 93 321 163 399 86 95 202 91 279 -10 18 -24 33 -49
33 -55 0 -7 -8 2 -19 18 -26 44 -76 83 -114 90 -78 15 -165 -10 -90 -26 105
-22 173 -124 173 -259 -1 -68 -35 -205 -69 -274 -28 -58 -83 -126 -102 -126
-5 0 -9 -7 -9 -15 0 -46 150 93 198 183 36 70 50 111 61 187 8 55 9 57 10 18
1 -33 4 -41 16 -37 12 5 15 25 15 94 0 49 -4 92 -10 95 -5 3 -10 14 -10 23 0
9 -13 44 -29 77 -69 143 -174 209 -267 167z"/>
<path d="M11533 2208 l-53 -10 0 -1043 c0 -824 3 -1045 13 -1052 17 -11 440
-16 507 -6 l55 8 6 605 c6 664 4 647 70 776 84 167 230 233 490 222 l98 -4 8
56 c11 73 10 436 0 447 -14 13 -239 16 -299 4 -120 -25 -263 -123 -360 -246
-24 -29 -45 -54 -48 -54 -3 -1 -13 45 -22 102 -9 56 -23 120 -30 142 -13 39
-15 40 -78 52 -76 14 -282 15 -357 1z"/>
<path d="M3342 1890 c-344 -162 -524 -482 -547 -970 -4 -69 -2 -162 2 -207 8
-78 8 -82 -12 -88 -11 -3 -126 -32 -255 -65 -271 -68 -439 -102 -630 -125
-185 -22 -200 -25 -200 -40 0 -25 338 -12 510 19 152 27 313 56 565 102 83 15
154 30 158 34 5 4 1 66 -8 136 -41 308 -10 584 85 774 72 145 225 316 358 400
39 25 71 51 71 58 1 17 -4 16 -97 -28z"/>
<path d="M3662 1880 c2 -8 31 -19 64 -26 203 -42 347 -191 416 -431 21 -70 23
-99 22 -273 0 -203 -1 -207 -59 -397 -7 -20 0 -19 187 27 106 26 344 84 528
129 184 44 463 112 620 150 l285 70 198 95 c141 69 197 101 197 113 0 16 19
80 76 261 12 39 19 72 15 72 -5 0 -33 -11 -62 -24 -63 -28 -1071 -458 -1268
-540 -74 -31 -140 -56 -147 -56 -8 0 -14 -7 -14 -15 0 -20 9 -19 87 11 38 14
124 45 193 69 209 72 784 273 802 280 13 5 7 -15 -26 -82 l-44 -89 -193 -43
c-298 -66 -1049 -239 -1192 -275 l-129 -32 7 25 c3 14 8 94 12 176 15 386
-103 658 -335 772 -62 31 -86 37 -159 41 -67 4 -85 2 -81 -8z"/>
<path d="M3490 1820 c0 -5 12 -12 28 -15 186 -36 287 -100 373 -234 85 -132
120 -265 120 -461 1 -211 -51 -411 -148 -573 -62 -102 -173 -209 -259 -249
-35 -16 -64 -34 -64 -39 0 -15 52 -10 108 10 146 54 249 151 342 323 130 242
170 562 104 823 -53 207 -197 362 -379 410 -66 17 -225 21 -225 5z"/>
<path d="M1815 1534 c-847 -221 -880 -227 -1075 -228 -126 -1 -165 2 -208 17
-40 14 -52 23 -48 35 12 45 17 102 8 102 -13 0 -55 -138 -48 -157 9 -23 89
-52 175 -64 147 -20 425 25 660 105 41 14 75 25 76 23 1 -1 7 -21 13 -44 7
-22 20 -51 30 -63 17 -21 17 -21 127 -5 61 9 161 27 223 40 109 23 119 27 285
126 241 143 227 136 192 105 -16 -14 -33 -26 -37 -26 -5 0 -8 -7 -8 -15 0 -8
3 -15 8 -15 4 0 63 45 131 100 68 55 128 100 132 100 5 0 9 7 9 15 0 8 -3 15
-7 14 -5 0 -291 -75 -638 -165z"/>
<path d="M2760 1354 c-19 -8 -125 -47 -235 -85 -110 -39 -229 -81 -265 -94
-55 -19 -316 -66 -507 -90 -38 -5 -53 -11 -53 -22 0 -12 8 -14 33 -10 17 3
133 13 257 23 257 19 213 7 595 172 126 55 231 105 233 111 5 15 -16 13 -58
-5z"/>
<path d="M152 1183 c-7 -3 -19 -18 -27 -34 -13 -25 -14 -33 -1 -61 28 -66 121
-128 192 -128 27 0 29 -3 13 -29 -7 -10 -9 -29 -6 -44 8 -30 91 -68 262 -117
l110 -32 120 -185 120 -184 330 7 c182 4 332 8 335 11 2 2 0 10 -5 18 -150
211 -235 350 -235 382 0 23 47 68 102 97 l36 20 219 -144 c120 -79 246 -161
279 -182 l61 -39 62 37 c33 20 61 40 61 44 0 11 -540 425 -554 424 -328 -28
-1029 -37 -1199 -15 -124 16 -205 36 -237 60 -27 20 -38 57 -21 74 21 21 12
32 -17 20z"/>
<path d="M107 914 c-84 -87 -89 -101 -57 -165 79 -154 322 -276 698 -349 154
-30 156 -29 126 34 -16 32 -20 34 -83 41 -157 16 -305 59 -468 135 -111 52
-196 121 -220 179 -14 34 -14 35 37 109 28 41 49 80 47 85 -2 6 -38 -25 -80
-69z"/>
</g>
</svg>
